# xmcd
#
# Track frame offsets: 
#        150
#        16921
#        39635
#        62267
#        78581
#        95553
#        116912
#        127441
#        156844
#        172795
#        179624
#        199801
#        218332
#
# Disc length: 3200 seconds
#
# Revision: 0
# Processed by: cddbd v1.5.2PL0 Copyright (c) Steve Scherf et al.
# Submitted via: ExactAudioCopyFreeDBPlugin 1.0
#
DISCID=b00c7e0d
DTITLE=群星 - 极品试音皇B
DYEAR=2009
DGENRE=Acid
TTITLE0=鼓诗
TTITLE1=葬心
TTITLE2=新阿瓦尔古丽
TTITLE3=威廉退尔序曲
TTITLE4=弥撒
TTITLE5=人间烟火
TTITLE6=帕格尼尼第五小提琴之狂想曲
TTITLE7=大峡谷
TTITLE8=波罗密多
TTITLE9=古琴对唢呐
TTITLE10=午夜梦回
TTITLE11=梦中的小屋
TTITLE12=张三的歌
EXTD=
EXTT0=
EXTT1=
EXTT2=
EXTT3=
EXTT4=
EXTT5=
EXTT6=
EXTT7=
EXTT8=
EXTT9=
EXTT10=
EXTT11=
EXTT12=
PLAYORDER=
